<svg xmlns="http://www.w3.org/2000/svg" viewBox="0 0 200 50"><defs><style>.cls-1{fill:#fff;}.cls-2{fill:#a8223b;}</style></defs><g id="Layer_2" data-name="Layer 2"><g id="Layer_1-2" data-name="Layer 1"><path class="cls-1" d="M63,18.67a10.57,10.57,0,0,1-.1,1.39,9.44,9.44,0,0,1-8.18,8H46.06V13.32h2.71v12h5.75a6.74,6.74,0,0,0,5.61-5.26,7,7,0,0,0,.14-1.39,7.12,7.12,0,0,0-.13-1.32,6.73,6.73,0,0,0-2.54-4A6.66,6.66,0,0,0,53.84,12H46.06V9.24h7.6a9.42,9.42,0,0,1,9.23,8.1A9.54,9.54,0,0,1,63,18.67Z"/><path class="cls-1" d="M82,28H73.88a9.66,9.66,0,0,1-6.75-2.71h0a9.2,9.2,0,0,1,0-13.33h0a9.66,9.66,0,0,1,6.75-2.71H82V12h-9a6.82,6.82,0,0,0-6,6.67,6.82,6.82,0,0,0,6,6.66h6.36v-6H73.93l-1.25-2.71H82Z"/><path class="cls-1" d="M111,22.64A5.43,5.43,0,0,1,104.9,28a5.48,5.48,0,0,1-.7,0h-10V13.34h2.71v3.87h7.7a2.68,2.68,0,0,0,.14-5.26H94.23V9.17h10a5.43,5.43,0,0,1,4.68,2.71l0,.07a5.39,5.39,0,0,1,0,5.26.05.05,0,0,0,0,0,5.63,5.63,0,0,1-.53.75,6.27,6.27,0,0,1,.83.6A5.52,5.52,0,0,1,110.31,20,5.34,5.34,0,0,1,111,22.64Zm-2.71,0A2.69,2.69,0,0,0,106.1,20H96.94v5.25h9.22A2.69,2.69,0,0,0,108.28,22.64Z"/><path class="cls-1" d="M117.27,14l1.78,3.25-6,10.77h-3.58Zm13.12,14h-3.58L120,15.64l-1.79-3.23L120,9.18h0l1.79,3.24Z"/><path class="cls-1" d="M145.36,9.23V28l-2.71-2.71-9.5-9.5h0L130.44,13V9.2l12.21,12.2V9.23ZM130.44,15l2.71,2.71V28h-2.71Z"/><path class="cls-1" d="M164.06,28H156a9.68,9.68,0,0,1-6.76-2.71h0a9.22,9.22,0,0,1,0-13.33h0A9.68,9.68,0,0,1,156,9.28H164V12h-9a6.82,6.82,0,0,0-6,6.67,6.82,6.82,0,0,0,6,6.66h6.35v-6H156l-1.26-2.71h9.32Z"/><path class="cls-1" d="M180,25.32V28H165.35V9.1h2.71V25.32Z"/><path class="cls-1" d="M187.77,14l1.78,3.25-6,10.77H180Zm13.11,14H197.3l-6.86-12.39-1.79-3.23,1.79-3.23h0l1.79,3.24Z"/><path class="cls-1" d="M46,38.79h-.66V33.91h3.38v.59H46V36h2.39v.59H46Z"/><path class="cls-1" d="M54.4,38.79H50.8V33.91h3.55v.59H51.46V36h2.67v.59H51.46v1.63H54.4Z"/><path class="cls-1" d="M60.29,38.79h-3.6V33.91h3.55v.59H57.35V36H60v.59H57.35v1.63h2.94Z"/><path class="cls-1" d="M63.17,38.21h2.47v.58H62.51V33.91h.66Z"/><path class="cls-1" d="M70.13,33.91h4v.59H72.44v4.29h-.66V34.5H70.13Z"/><path class="cls-1" d="M79.27,33.91h.66v4.88h-.66V36.52H76.72v2.27h-.66V33.91h.66v2h2.55Z"/><path class="cls-1" d="M86,38.79h-3.6V33.91h3.55v.59H83.05V36h2.67v.59H83.05v1.63H86Z"/><path class="cls-1" d="M94.88,35.38a1.28,1.28,0,0,0-1.37-1c-.88,0-1.6.65-1.6,1.94s.41,2,1.62,2c.43,0,1.17-.21,1.39-1.34h.64a2.05,2.05,0,0,1-2.13,1.92c-1.11,0-2.19-.72-2.19-2.59a2.26,2.26,0,0,1,2.27-2.54,1.84,1.84,0,0,1,2,1.59Z"/><path class="cls-1" d="M98.45,38.79H97.8V33.91h2.25c.8,0,1.6.28,1.6,1.32a1.17,1.17,0,0,1-.68,1.16c.28.12.56.24.59.92l0,.88c0,.28,0,.38.24.49v.11H101a5.69,5.69,0,0,1-.12-1.22c0-.4-.08-.87-.87-.87h-1.6Zm0-2.65H100c.49,0,1-.13,1-.85s-.55-.81-.87-.81H98.45Z"/><path class="cls-1" d="M107.64,38.79H104V33.91h3.56v.59h-2.9V36h2.67v.59H104.7v1.63h2.94Z"/><path class="cls-1" d="M110.63,37.37l-.51,1.42h-.68l1.84-4.88H112l1.77,4.88h-.72l-.48-1.42Zm1.72-.58-.72-2.15h0l-.78,2.15Z"/><path class="cls-1" d="M114.52,33.91h4v.59h-1.66v4.29h-.65V34.5h-1.65Z"/><path class="cls-1" d="M121.2,38.79h-.65V33.91h.65Z"/><path class="cls-1" d="M126.83,33.91h.74l-1.78,4.88h-.7l-1.78-4.88H124l1.4,4.16h0Z"/><path class="cls-1" d="M133.25,38.79h-3.6V33.91h3.55v.59h-2.89V36H133v.59h-2.66v1.63h2.94Z"/><path class="cls-1" d="M138,33.91h4v.59h-1.65v4.29h-.66V34.5H138Z"/><path class="cls-1" d="M145.73,38.92a2.35,2.35,0,0,1-2.37-2.57,2.38,2.38,0,1,1,4.75,0A2.36,2.36,0,0,1,145.73,38.92Zm0-4.55a1.75,1.75,0,0,0-1.69,2,1.72,1.72,0,1,0,3.39,0A1.76,1.76,0,0,0,145.73,34.37Z"/><path class="cls-1" d="M154.11,33.91v3.17a1.77,1.77,0,0,1-2,1.84,1.69,1.69,0,0,1-1.88-1.75V33.91h.66V37a1.26,1.26,0,1,0,2.52,0V33.91Z"/><path class="cls-1" d="M159.94,35.38a1.28,1.28,0,0,0-1.37-1c-.88,0-1.6.65-1.6,1.94s.41,2,1.62,2c.43,0,1.17-.21,1.39-1.34h.64a2.05,2.05,0,0,1-2.13,1.92c-1.11,0-2.2-.72-2.2-2.59a2.27,2.27,0,0,1,2.28-2.54,1.84,1.84,0,0,1,2,1.59Z"/><path class="cls-1" d="M166,33.91h.66v4.88H166V36.52h-2.55v2.27h-.66V33.91h.66v2H166Z"/><polygon class="cls-1" points="21.32 39.06 25.7 36.62 25.7 9.84 40.67 18.63 40.67 11.96 21.32 0 21.32 39.06"/><polygon class="cls-1" points="21.32 40.73 21.32 47.51 40.89 35.74 40.67 22.18 28.41 22.18 28.5 27.86 34.54 27.86 34.54 32.82 21.32 40.73"/><path class="cls-2" d="M0,12.28V35.55L19.66,47.28V0ZM14.49,37.6,6.4,32.53V15l8.09-4.87Z"/></g></g></svg>